<svg width="198" height="23" viewBox="0 0 198 23" fill="none" xmlns="http://www.w3.org/2000/svg">
<g clip-path="url(#clip0_72_663)">
<path d="M49.6842 6.46597H55.8544V22.349H62.7153V6.46597H68.8856V0.650879H49.6381V6.46597H49.6842Z" fill="white"/>
<path d="M82.1009 8.93962L79.4763 8.28868C78.0488 7.94151 77.3581 7.46415 77.3581 6.8566C77.3581 5.98868 78.4172 5.51132 80.3512 5.51132C82.7456 5.51132 85.2781 6.37924 87.4884 7.94151V1.77925C84.9558 0.564151 82.3772 0 79.6605 0C73.9968 0 70.4512 2.69057 70.4512 6.98679C70.4512 10.2849 72.4312 12.4113 76.4833 13.4528L79.7986 14.2774C81.134 14.5811 81.7786 15.1019 81.7786 15.8396C81.7786 16.9245 80.6275 17.4887 78.5093 17.4887C75.7465 17.4887 72.8916 16.4906 70.5893 14.7113V20.8736C73.26 22.3057 76.1149 23 79.2 23C85.0019 23 88.6395 20.1792 88.6395 15.666C88.6856 12.2811 86.4754 10.0245 82.1009 8.93962Z" fill="white"/>
<path d="M40.7512 13.7565C40.7512 15.5792 39.2316 17.0113 37.2977 17.0113C35.3637 17.0113 33.8442 15.5792 33.8442 13.7565V0.650879H26.9833V13.2792C26.9833 18.9641 31.2656 22.9999 37.2977 22.9999C43.3298 22.9999 47.6121 18.9641 47.6121 13.2792V0.650879H40.7512V13.7565Z" fill="white"/>
<path d="M12.3865 0C5.43349 0 0 5.03396 0 11.5C0 17.966 5.43349 23 12.3865 23C19.3395 23 24.773 17.966 24.773 11.5C24.773 5.03396 19.3395 0 12.3865 0ZM12.3865 17.0113C9.39349 17.0113 7.04512 14.5811 7.04512 11.5C7.04512 8.41887 9.39349 5.98868 12.3865 5.98868C15.3795 5.98868 17.7279 8.41887 17.7279 11.5C17.7279 14.5811 15.3795 17.0113 12.3865 17.0113Z" fill="white"/>
<path d="M188.699 16.5339V0.650879H181.838V22.349H198V16.5339H188.699Z" fill="white"/>
<path d="M167.241 0C164.386 0 162.36 0.650943 159.874 2.3434C158.354 3.25472 157.617 3.55849 156.973 3.55849C156.19 3.55849 155.453 3.25472 154.072 2.3434C151.585 0.650943 149.513 0 146.704 0C139.751 0 134.318 5.03396 134.318 11.5C134.318 17.966 139.659 23 146.612 23C149.421 23 151.447 22.3491 153.98 20.6566C155.361 19.7019 156.098 19.4415 156.88 19.4415C157.755 19.4415 158.446 19.7453 159.781 20.6566C162.268 22.3491 164.34 23 167.149 23C174.102 23 179.535 17.966 179.535 11.5C179.535 5.03396 174.148 0 167.241 0ZM167.195 16.8377C165.583 16.8377 163.189 15.9264 161.393 14.6679C159.689 13.4528 158.354 12.9321 156.927 12.9321C155.499 12.9321 154.164 13.4528 152.46 14.6679C150.664 15.9264 148.27 16.7943 146.658 16.7943C143.665 16.7943 141.317 14.4509 141.317 11.4566C141.317 8.46226 143.711 6.11887 146.658 6.11887C148.27 6.11887 150.664 6.98679 152.46 8.24528C154.21 9.46038 155.591 9.98113 156.927 9.98113C158.354 9.98113 159.689 9.46038 161.393 8.24528C163.189 6.98679 165.583 6.07547 167.195 6.07547C170.188 6.07547 172.536 8.41887 172.536 11.4132C172.536 14.4075 170.188 16.8377 167.195 16.8377Z" fill="white"/>
<path d="M125.108 8.4188H118.247V0.650879H111.387V22.349H118.247V14.2339H125.108V22.349H131.969V0.650879H125.108V8.4188Z" fill="white"/>
<path d="M90.067 11.5C90.067 18.2264 95.1781 23 102.453 23C104.341 23 106.736 22.6094 108.624 22.0019V15.8396C107.058 16.6208 105.354 17.0113 103.467 17.0113C99.7367 17.0113 97.1121 14.7547 97.1121 11.5C97.1121 8.24528 99.7367 5.98868 103.467 5.98868C105.262 5.98868 106.966 6.42264 108.624 7.20377V1.08491C106.828 0.433962 104.48 0 102.453 0C95.1781 0 90.067 4.77358 90.067 11.5Z" fill="white"/>
</g>
<defs>
<clipPath id="clip0_72_663">
<rect width="198" height="23" fill="white"/>
</clipPath>
</defs>
</svg>
