<svg width="16" height="16" viewBox="0 0 16 16" fill="none" xmlns="http://www.w3.org/2000/svg">
<path d="M9.66668 2.66671C9.66668 2.2 9.66668 1.96664 9.7575 1.78838C9.8374 1.63158 9.96488 1.5041 10.1217 1.4242C10.2999 1.33337 10.5333 1.33337 11 1.33337H13.3333C13.8001 1.33337 14.0334 1.33337 14.2117 1.4242C14.3685 1.5041 14.496 1.63158 14.5758 1.78838C14.6667 1.96664 14.6667 2.2 14.6667 2.66671V5.00004C14.6667 5.46675 14.6667 5.70011 14.5758 5.87837C14.496 6.03517 14.3685 6.16265 14.2117 6.24255C14.0334 6.33337 13.8001 6.33337 13.3333 6.33337H11C10.5333 6.33337 10.2999 6.33337 10.1217 6.24255C9.96488 6.16265 9.8374 6.03517 9.7575 5.87837C9.66668 5.70011 9.66668 5.46675 9.66668 5.00004V2.66671Z" stroke="#5228B6" stroke-width="2" stroke-linecap="round" stroke-linejoin="round"/>
<path d="M1.33334 2.66671C1.33334 2.2 1.33334 1.96664 1.42417 1.78838C1.50407 1.63158 1.63155 1.5041 1.78835 1.4242C1.96661 1.33337 2.19997 1.33337 2.66668 1.33337H5.00001C5.46672 1.33337 5.70008 1.33337 5.87834 1.4242C6.03514 1.5041 6.16262 1.63158 6.24252 1.78838C6.33334 1.96664 6.33334 2.2 6.33334 2.66671V5.00004C6.33334 5.46675 6.33334 5.70011 6.24252 5.87837C6.16262 6.03517 6.03514 6.16265 5.87834 6.24255C5.70008 6.33337 5.46672 6.33337 5.00001 6.33337H2.66668C2.19997 6.33337 1.96661 6.33337 1.78835 6.24255C1.63155 6.16265 1.50407 6.03517 1.42417 5.87837C1.33334 5.70011 1.33334 5.46675 1.33334 5.00004V2.66671Z" stroke="#5228B6" stroke-width="2" stroke-linecap="round" stroke-linejoin="round"/>
<path d="M1.33334 11C1.33334 10.5333 1.33334 10.3 1.42417 10.1217C1.50407 9.96491 1.63155 9.83743 1.78835 9.75754C1.96661 9.66671 2.19997 9.66671 2.66668 9.66671H5.00001C5.46672 9.66671 5.70008 9.66671 5.87834 9.75754C6.03514 9.83743 6.16262 9.96491 6.24252 10.1217C6.33334 10.3 6.33334 10.5333 6.33334 11V13.3334C6.33334 13.8001 6.33334 14.0334 6.24252 14.2117C6.16262 14.3685 6.03514 14.496 5.87834 14.5759C5.70008 14.6667 5.46672 14.6667 5.00001 14.6667H2.66668C2.19997 14.6667 1.96661 14.6667 1.78835 14.5759C1.63155 14.496 1.50407 14.3685 1.42417 14.2117C1.33334 14.0334 1.33334 13.8001 1.33334 13.3334V11Z" stroke="#5228B6" stroke-width="2" stroke-linecap="round" stroke-linejoin="round"/>
<path d="M9.66668 11C9.66668 10.5333 9.66668 10.3 9.7575 10.1217C9.8374 9.96491 9.96488 9.83743 10.1217 9.75754C10.2999 9.66671 10.5333 9.66671 11 9.66671H13.3333C13.8001 9.66671 14.0334 9.66671 14.2117 9.75754C14.3685 9.83743 14.496 9.96491 14.5758 10.1217C14.6667 10.3 14.6667 10.5333 14.6667 11V13.3334C14.6667 13.8001 14.6667 14.0334 14.5758 14.2117C14.496 14.3685 14.3685 14.496 14.2117 14.5759C14.0334 14.6667 13.8001 14.6667 13.3333 14.6667H11C10.5333 14.6667 10.2999 14.6667 10.1217 14.5759C9.96488 14.496 9.8374 14.3685 9.7575 14.2117C9.66668 14.0334 9.66668 13.8001 9.66668 13.3334V11Z" stroke="#5228B6" stroke-width="2" stroke-linecap="round" stroke-linejoin="round"/>
</svg>
